<?xml version="1.0" standalone="no"?>
<!DOCTYPE svg PUBLIC "-//W3C//DTD SVG 20010904//EN"
 "http://www.w3.org/TR/2001/REC-SVG-20010904/DTD/svg10.dtd">
<svg version="1.0" xmlns="http://www.w3.org/2000/svg"
 width="289.000000pt" height="289.000000pt" viewBox="0 0 289.000000 289.000000"
 preserveAspectRatio="xMidYMid meet">
<metadata>
Created by potrace 1.11, written by Peter Selinger 2001-2013
</metadata>
<g transform="translate(0.000000,289.000000) scale(0.100000,-0.100000)"
fill="#000000" stroke="none">
<path d="M0 1445 l0 -1445 1445 0 1445 0 0 1445 0 1445 -1445 0 -1445 0 0
-1445z m1860 1080 c188 -33 321 -95 426 -200 78 -76 114 -137 139 -234 19 -74
22 -219 5 -280 -30 -113 -110 -226 -198 -282 l-43 -27 38 -12 c147 -48 251
-162 282 -308 18 -87 14 -258 -9 -346 -27 -108 -63 -169 -150 -257 -85 -86
-185 -141 -325 -180 -91 -24 -185 -27 -1023 -32 l-482 -2 0 453 0 452 270 0
270 0 0 -185 0 -185 333 0 c210 0 347 4 372 11 50 14 120 84 134 136 35 124
-16 238 -129 291 -31 15 -101 17 -642 20 l-608 3 0 589 0 590 628 0 c511 0
643 -3 712 -15z"/>
<path d="M744 2288 c3 -13 5 -170 5 -350 l1 -328 463 0 c460 0 463 0 507 23
68 34 103 85 108 156 2 32 -1 74 -7 93 -14 43 -62 92 -115 121 -39 21 -55 22
-343 25 l-303 3 0 -170 0 -171 -110 0 c-81 0 -110 3 -111 13 0 9 0 421 1 510
0 18 20 18 453 14 480 -4 486 -4 601 -56 79 -34 131 -84 167 -157 28 -57 33
-76 33 -147 1 -111 -21 -172 -90 -246 -36 -40 -79 -72 -131 -99 l-76 -40 44
-7 c183 -31 312 -168 326 -347 17 -223 -119 -394 -348 -437 -33 -6 -238 -9
-518 -8 l-464 2 -1 180 -1 180 -42 3 c-24 2 -43 0 -43 -5 0 -4 -1 -105 -1
-223 l-2 -215 539 -3 c350 -1 557 1 590 8 137 29 278 133 337 251 97 193 58
444 -89 578 -31 28 -61 51 -67 51 -7 0 -18 4 -25 9 -11 6 -1 20 37 56 112 105
153 274 104 430 -49 155 -168 259 -350 305 -72 18 -113 20 -580 20 l-503 0 4
-22z"/>
</g>
</svg>
